<svg width="29" height="29" viewBox="0 0 29 29" fill="none" xmlns="http://www.w3.org/2000/svg">
<path fill-rule="evenodd" clip-rule="evenodd" d="M27.0835 24.6672C27.5367 24.214 27.7913 23.5993 27.7913 22.9583V9.66667C27.7913 9.02573 27.5367 8.41104 27.0835 7.95783C26.6303 7.50461 26.0156 7.25 25.3747 7.25H20.5413L18.1247 3.625H10.8747L8.45801 7.25H3.62467C2.98373 7.25 2.36905 7.50461 1.91583 7.95783C1.46262 8.41104 1.20801 9.02573 1.20801 9.66667V22.9583C1.20801 23.5993 1.46262 24.214 1.91583 24.6672C2.36905 25.1204 2.98373 25.375 3.62467 25.375H25.3747C26.0156 25.375 26.6303 25.1204 27.0835 24.6672ZM19.3329 15.7083C19.3329 18.3777 17.169 20.5417 14.4996 20.5417C11.8302 20.5417 9.66626 18.3777 9.66626 15.7083C9.66626 13.039 11.8302 10.875 14.4996 10.875C17.169 10.875 19.3329 13.039 19.3329 15.7083Z" fill="#556FB5"/>
</svg>
