<svg width="173" height="172" viewBox="0 0 173 172" fill="none" xmlns="http://www.w3.org/2000/svg">
<g filter="url(#filter0_d_304_37)">
<path fill-rule="evenodd" clip-rule="evenodd" d="M86 35C65.5655 35 49 51.5655 49 72C49 92.4345 65.5655 109 86 109C93.772 109 100.984 106.604 106.938 102.51L121.428 105.282C122.94 105.571 124.198 104.115 123.693 102.661L118.915 88.9164C121.526 83.8465 123 78.0954 123 72C123 51.5655 106.435 35 86 35Z" fill="#556FB5"/>
</g>
<path fill-rule="evenodd" clip-rule="evenodd" d="M69.1687 78.9191C70.8599 86.0645 77.2805 91.381 84.9428 91.381C92.6051 91.381 99.0257 86.0645 100.717 78.9191C101.069 79.7147 101.738 80.3385 102.564 80.6298C102.351 81.5841 102.055 82.5204 101.68 83.428C100.827 85.4871 99.5765 87.358 98.0006 88.9339C96.4246 90.5099 94.5537 91.76 92.4947 92.6129C90.9321 93.2601 89.2845 93.669 87.6068 93.8285C87.3306 93.2165 86.7151 92.7905 86 92.7905C85.0269 92.7905 84.2381 93.5793 84.2381 94.5524C84.2381 95.5255 85.0269 96.3143 86 96.3143C86.4497 96.3143 86.86 96.1458 87.1713 95.8686C89.2621 95.7392 91.3198 95.2643 93.26 94.4606C95.5617 93.5072 97.6531 92.1098 99.4148 90.3482C101.176 88.5865 102.574 86.4951 103.527 84.1934C104.001 83.0487 104.361 81.8631 104.603 80.6539C105.873 80.2399 106.79 79.0461 106.79 77.6381V70.5905C106.79 68.8389 105.371 67.419 103.619 67.419C103.52 67.419 103.421 67.4236 103.324 67.4325C102.468 64.2317 100.782 61.2808 98.3981 58.8971C94.8295 55.3286 89.9895 53.3238 84.9428 53.3238C79.8961 53.3238 75.0562 55.3286 71.4876 58.8971C69.104 61.2808 67.418 64.2317 66.5612 67.4325C66.4642 67.4236 66.366 67.419 66.2666 67.419C64.5151 67.419 63.0952 68.8389 63.0952 70.5905V77.6381C63.0952 79.3896 64.5151 80.8095 66.2666 80.8095C67.5623 80.8095 68.6765 80.0325 69.1687 78.9191ZM99.0615 67.2025C98.3177 65.1634 97.1339 63.2898 95.5696 61.7256C92.7512 58.9072 88.9287 57.3238 84.9428 57.3238C80.957 57.3238 77.1344 58.9072 74.316 61.7256C72.7518 63.2898 71.568 65.1633 70.8242 67.2024C73.607 62.2826 78.8871 58.9619 84.9428 58.9619C90.9985 58.9619 96.2786 62.2826 99.0615 67.2025ZM79 79.4524C78.8343 79.2315 78.5209 79.1867 78.3 79.3524C78.0791 79.5181 78.0343 79.8315 78.2 80.0524C79.3047 81.5253 81.3568 83.3116 83.9449 83.8367C86.5817 84.3717 89.6622 83.5753 92.7191 80.0816C92.901 79.8738 92.8799 79.5579 92.6721 79.3761C92.4643 79.1942 92.1484 79.2153 91.9666 79.4231C89.1035 82.6952 86.3697 83.3083 84.1437 82.8566C81.8689 82.3951 80.0096 80.7985 79 79.4524Z" fill="white"/>
<defs>
<filter id="filter0_d_304_37" x="0" y="0" width="172.806" height="172" filterUnits="userSpaceOnUse" color-interpolation-filters="sRGB">
<feFlood flood-opacity="0" result="BackgroundImageFix"/>
<feColorMatrix in="SourceAlpha" type="matrix" values="0 0 0 0 0 0 0 0 0 0 0 0 0 0 0 0 0 0 127 0" result="hardAlpha"/>
<feOffset dy="14"/>
<feGaussianBlur stdDeviation="24.5"/>
<feColorMatrix type="matrix" values="0 0 0 0 0 0 0 0 0 0 0 0 0 0 0 0 0 0 0.25 0"/>
<feBlend mode="normal" in2="BackgroundImageFix" result="effect1_dropShadow_304_37"/>
<feBlend mode="normal" in="SourceGraphic" in2="effect1_dropShadow_304_37" result="shape"/>
</filter>
</defs>
</svg>
