<svg width="51" height="51" viewBox="0 0 51 51" fill="none" xmlns="http://www.w3.org/2000/svg">
<path d="M6.38073 9.56104V12.7518H11.1556V9.56104H6.38073ZM12.743 9.56104V12.7518H31.6618L28.8729 35.0571H18.8221C18.1572 33.2125 16.4026 31.8668 14.3429 31.8668C12.2833 31.8668 10.5287 33.2125 9.86381 35.0571H3.19025V38.2445H9.8607C10.523 40.0908 12.2799 41.432 14.3429 41.432C16.406 41.432 18.1629 40.0908 18.8252 38.2445C22.744 38.2445 26.6629 38.2445 30.5817 38.2445C31.2442 40.0903 32.9981 41.432 35.0609 41.432C37.124 41.432 38.8809 40.0908 39.5431 38.2445H43.0262C43.7397 38.2494 44.3691 37.7782 44.567 37.0927L47.745 25.9401C47.8366 25.6238 47.828 25.2863 47.7203 24.975L44.4022 15.4098C44.1793 14.7684 43.5747 14.3389 42.8957 14.3392H34.6751L35.0486 11.3511C35.1661 10.403 34.4289 9.56507 33.4736 9.56104H12.743ZM3.19025 15.9392V19.1266H7.96819V15.9392H3.19025ZM9.56811 15.9392V19.1266H19.1209V15.9392H9.56811ZM34.2765 17.5267H41.7656L44.5421 25.5386L41.8247 35.0571H39.54C38.8752 33.2125 37.1205 31.8668 35.0609 31.8668C34.0707 31.8668 33.1469 32.178 32.3809 32.7039L34.2765 17.5267ZM6.38073 22.3137V25.5044H14.3429V22.3137H6.38073ZM15.9335 22.3137V25.5044H20.7208V22.3137H15.9335ZM3.19025 28.6793V31.8668H7.96819V28.6793H3.19025ZM14.3429 35.0571C15.242 35.0571 15.9335 35.7581 15.9335 36.6571C15.9335 37.5561 15.242 38.2445 14.3429 38.2445C13.4439 38.2445 12.743 37.5561 12.743 36.6571C12.743 35.7581 13.4439 35.0571 14.3429 35.0571ZM35.0609 35.0571C35.9599 35.0571 36.6483 35.7581 36.6483 36.6571C36.6483 37.5561 35.9599 38.2445 35.0609 38.2445C34.1618 38.2445 33.4734 37.5561 33.4734 36.6571C33.4734 35.7581 34.1618 35.0571 35.0609 35.0571Z" fill="#B7C1DA" stroke="#B7C1DA"/>
</svg>
