<svg width="51" height="51" viewBox="0 0 51 51" fill="none" xmlns="http://www.w3.org/2000/svg">
<path d="M46.75 8.5H4.25C3.68641 8.5 3.14591 8.72388 2.7474 9.1224C2.34888 9.52091 2.125 10.0614 2.125 10.625V40.375C2.125 40.9386 2.34888 41.4791 2.7474 41.8776C3.14591 42.2761 3.68641 42.5 4.25 42.5H46.75C47.3136 42.5 47.8541 42.2761 48.2526 41.8776C48.6511 41.4791 48.875 40.9386 48.875 40.375V10.625C48.875 10.0614 48.6511 9.52091 48.2526 9.1224C47.8541 8.72388 47.3136 8.5 46.75 8.5ZM44.625 38.25H40.375V31.875C40.375 31.3114 40.1511 30.7709 39.7526 30.3724C39.3541 29.9739 38.8136 29.75 38.25 29.75C37.6864 29.75 37.1459 29.9739 36.7474 30.3724C36.3489 30.7709 36.125 31.3114 36.125 31.875V38.25H6.375V12.75H36.125V19.125C36.125 19.6886 36.3489 20.2291 36.7474 20.6276C37.1459 21.0261 37.6864 21.25 38.25 21.25C38.8136 21.25 39.3541 21.0261 39.7526 20.6276C40.1511 20.2291 40.375 19.6886 40.375 19.125V12.75H44.625V38.25ZM29.1338 17.6162C29.3329 17.8138 29.491 18.0488 29.5989 18.3078C29.7068 18.5667 29.7623 18.8445 29.7623 19.125C29.7623 19.4055 29.7068 19.6833 29.5989 19.9422C29.491 20.2012 29.3329 20.4362 29.1338 20.6337L16.3837 33.3837C16.1862 33.5829 15.9512 33.741 15.6922 33.8489C15.4333 33.9568 15.1555 34.0123 14.875 34.0123C14.5945 34.0123 14.3167 33.9568 14.0578 33.8489C13.7988 33.741 13.5638 33.5829 13.3663 33.3837C13.1671 33.1862 13.009 32.9512 12.9011 32.6922C12.7932 32.4333 12.7377 32.1555 12.7377 31.875C12.7377 31.5945 12.7932 31.3167 12.9011 31.0578C13.009 30.7988 13.1671 30.5638 13.3663 30.3662L26.1162 17.6162C26.3138 17.4171 26.5488 17.259 26.8078 17.1511C27.0667 17.0432 27.3445 16.9877 27.625 16.9877C27.9055 16.9877 28.1833 17.0432 28.4422 17.1511C28.7012 17.259 28.9362 17.4171 29.1338 17.6162ZM14.875 19.125C14.875 18.7047 14.9996 18.2939 15.2331 17.9444C15.4666 17.595 15.7985 17.3226 16.1868 17.1618C16.5751 17.0009 17.0024 16.9588 17.4146 17.0408C17.8268 17.1228 18.2054 17.3252 18.5026 17.6224C18.7998 17.9196 19.0022 18.2982 19.0842 18.7104C19.1662 19.1226 19.1241 19.5499 18.9632 19.9382C18.8024 20.3265 18.53 20.6584 18.1806 20.8919C17.8311 21.1254 17.4203 21.25 17 21.25C16.4364 21.25 15.8959 21.0261 15.4974 20.6276C15.0989 20.2291 14.875 19.6886 14.875 19.125ZM27.625 31.875C27.625 32.2953 27.5004 32.7061 27.2669 33.0556C27.0334 33.405 26.7015 33.6774 26.3132 33.8382C25.9249 33.9991 25.4976 34.0412 25.0854 33.9592C24.6732 33.8772 24.2946 33.6748 23.9974 33.3776C23.7002 33.0804 23.4978 32.7018 23.4158 32.2896C23.3338 31.8774 23.3759 31.4501 23.5368 31.0618C23.6976 30.6735 23.97 30.3416 24.3194 30.1081C24.6689 29.8746 25.0797 29.75 25.5 29.75C26.0636 29.75 26.6041 29.9739 27.0026 30.3724C27.4011 30.7709 27.625 31.3114 27.625 31.875Z" fill="#B7C1DA"/>
</svg>
