<svg width="20" height="20" viewBox="0 0 20 20" fill="none" xmlns="http://www.w3.org/2000/svg">
<path d="M17.3666 3.8416C16.941 3.41577 16.4356 3.07797 15.8794 2.8475C15.3232 2.61704 14.727 2.49841 14.1249 2.49841C13.5229 2.49841 12.9267 2.61704 12.3705 2.8475C11.8143 3.07797 11.3089 3.41577 10.8833 3.8416L9.99994 4.72493L9.1166 3.8416C8.25686 2.98186 7.0908 2.49886 5.87494 2.49886C4.65908 2.49886 3.49301 2.98186 2.63327 3.8416C1.77353 4.70134 1.29053 5.86741 1.29053 7.08327C1.29053 8.29913 1.77353 9.46519 2.63327 10.3249L3.5166 11.2083L9.99994 17.6916L16.4833 11.2083L17.3666 10.3249C17.7924 9.89931 18.1302 9.39395 18.3607 8.83773C18.5912 8.28152 18.7098 7.68534 18.7098 7.08327C18.7098 6.4812 18.5912 5.88502 18.3607 5.32881C18.1302 4.77259 17.7924 4.26723 17.3666 3.8416V3.8416Z" stroke="#556FB5" stroke-linecap="round" stroke-linejoin="round"/>
</svg>
