<svg width="20" height="21" viewBox="0 0 20 21" fill="none" xmlns="http://www.w3.org/2000/svg">
<path d="M12.9164 6.74996L15.8331 3.83329M17.4997 2.16663L15.8331 3.83329L17.4997 2.16663ZM9.49141 10.175C9.92169 10.5995 10.2637 11.105 10.4979 11.6623C10.732 12.2196 10.8536 12.8177 10.8556 13.4222C10.8576 14.0266 10.7401 14.6255 10.5097 15.1844C10.2793 15.7432 9.94062 16.251 9.5132 16.6784C9.08577 17.1058 8.57801 17.4445 8.01916 17.6749C7.46031 17.9053 6.86141 18.0228 6.25693 18.0208C5.65246 18.0188 5.05436 17.8972 4.49707 17.6631C3.93977 17.429 3.4343 17.0869 3.00974 16.6566C2.17485 15.7922 1.71288 14.6344 1.72332 13.4327C1.73376 12.231 2.21578 11.0814 3.06557 10.2316C3.91536 9.38184 5.06492 8.89981 6.26665 8.88937C7.46839 8.87893 8.62615 9.3409 9.49057 10.1758L9.49141 10.175ZM9.49141 10.175L12.9164 6.74996L9.49141 10.175ZM12.9164 6.74996L15.4164 9.24996L18.3331 6.33329L15.8331 3.83329L12.9164 6.74996Z" stroke="#556FB5" stroke-linecap="round" stroke-linejoin="round"/>
</svg>
