<svg width="17" height="17" viewBox="0 0 17 17" fill="none" xmlns="http://www.w3.org/2000/svg">
<path fill-rule="evenodd" clip-rule="evenodd" d="M8.5 16.2916C8.5 16.2916 14.875 12.0416 14.875 7.08325C14.875 5.3925 14.2033 3.77099 13.0078 2.57545C11.8123 1.3799 10.1908 0.708252 8.5 0.708252C6.80924 0.708252 5.18774 1.3799 3.99219 2.57545C2.79665 3.77099 2.125 5.3925 2.125 7.08325C2.125 12.0416 8.5 16.2916 8.5 16.2916ZM10.625 7.08325C10.625 8.25686 9.6736 9.20825 8.5 9.20825C7.3264 9.20825 6.375 8.25686 6.375 7.08325C6.375 5.90965 7.3264 4.95825 8.5 4.95825C9.6736 4.95825 10.625 5.90965 10.625 7.08325Z" fill="#556FB5"/>
</svg>
