<svg width="41" height="23" viewBox="0 0 41 23" fill="none" xmlns="http://www.w3.org/2000/svg">
<g clip-path="url(#clip0_289_0)">
<path d="M35.5455 0.835938H4.18182C2.33418 0.835938 0.836365 2.33375 0.836365 4.18139V17.145C0.836365 18.9927 2.33418 20.4905 4.18182 20.4905H35.5455C37.3931 20.4905 38.8909 18.9927 38.8909 17.145V4.18139C38.8909 2.33375 37.3931 0.835938 35.5455 0.835938Z" stroke="#24E09B" stroke-width="2"/>
<path d="M36.8 23.0004C39.1096 23.0004 40.9818 21.1281 40.9818 18.8185C40.9818 16.509 39.1096 14.6367 36.8 14.6367C34.4905 14.6367 32.6182 16.509 32.6182 18.8185C32.6182 21.1281 34.4905 23.0004 36.8 23.0004Z" fill="#24E09B"/>
<path d="M39.1 17.1465V18.401H37.8455" stroke="white" stroke-linecap="round" stroke-linejoin="round"/>
<path d="M34.5 20.4909V19.2363H35.7545" stroke="white" stroke-linecap="round" stroke-linejoin="round"/>
<path d="M35.0248 18.1915C35.1309 17.8919 35.3111 17.6239 35.5487 17.4128C35.7863 17.2016 36.0735 17.054 36.3835 16.9839C36.6936 16.9137 37.0164 16.9233 37.3217 17.0116C37.6271 17.0999 37.9051 17.2642 38.1298 17.489L39.1 18.4006M34.5 19.237L35.4702 20.1486C35.6949 20.3734 35.9729 20.5377 36.2783 20.626C36.5836 20.7143 36.9064 20.7239 37.2165 20.6538C37.5265 20.5836 37.8137 20.436 38.0513 20.2249C38.2889 20.0137 38.4691 19.7458 38.5752 19.4461" stroke="white" stroke-linecap="round" stroke-linejoin="round"/>
<path d="M11.0818 17.1453C14.6616 17.1453 17.5636 14.2433 17.5636 10.6635C17.5636 7.08365 14.6616 4.18164 11.0818 4.18164C7.50201 4.18164 4.60001 7.08365 4.60001 10.6635C4.60001 14.2433 7.50201 17.1453 11.0818 17.1453Z" stroke="#24E09B" stroke-width="2"/>
<path d="M13.6358 12.2019C13.6358 12.5498 13.5455 12.8777 13.3648 13.1855C13.1909 13.4865 12.9299 13.7375 12.582 13.9382C12.2407 14.1322 11.8359 14.246 11.3676 14.2794V15.0924H10.7253V14.2694C10.0562 14.2092 9.51755 14.0084 9.1094 13.6672C8.70126 13.3193 8.49049 12.8509 8.47711 12.2621H9.98257C10.0227 12.7439 10.2703 13.0349 10.7253 13.1353V11.2183C10.2435 11.0979 9.85544 10.9775 9.56104 10.857C9.26664 10.7366 9.01239 10.5425 8.79828 10.2749C8.58417 10.0073 8.47711 9.64262 8.47711 9.18095C8.47711 8.59884 8.68453 8.12378 9.09937 7.75578C9.52089 7.38778 10.0629 7.17702 10.7253 7.12349V6.31055H11.3676V7.12349C12.0099 7.17702 12.5218 7.37106 12.9031 7.7056C13.2912 8.04015 13.5087 8.50182 13.5555 9.09062H12.04C12.0199 8.89658 11.9497 8.72931 11.8293 8.5888C11.7155 8.4416 11.5616 8.33789 11.3676 8.27767V10.1745C11.8694 10.3017 12.2642 10.4255 12.5519 10.5459C12.8463 10.6596 13.1005 10.8503 13.3146 11.118C13.5287 11.3789 13.6358 11.7402 13.6358 12.2019ZM9.94242 9.11069C9.94242 9.33149 10.0093 9.51215 10.1431 9.65266C10.277 9.78647 10.471 9.89687 10.7253 9.98386V8.24756C10.4844 8.28102 10.2937 8.37135 10.1532 8.51855C10.0127 8.66575 9.94242 8.86313 9.94242 9.11069ZM11.3676 13.1553C11.6218 13.1085 11.8192 13.0048 11.9597 12.8442C12.1069 12.6836 12.1805 12.4896 12.1805 12.2621C12.1805 12.0413 12.1103 11.864 11.9698 11.7302C11.8293 11.5964 11.6285 11.486 11.3676 11.399V13.1553Z" fill="#24E09B"/>
<path d="M33.8727 3.3457H21.7455C21.2835 3.3457 20.9091 3.72016 20.9091 4.18207C20.9091 4.64398 21.2835 5.01843 21.7455 5.01843H33.8727C34.3346 5.01843 34.7091 4.64398 34.7091 4.18207C34.7091 3.72016 34.3346 3.3457 33.8727 3.3457Z" fill="#B7C1DA"/>
<path d="M29.2727 6.69141H21.7455C21.2835 6.69141 20.9091 7.06586 20.9091 7.52777C20.9091 7.98968 21.2835 8.36413 21.7455 8.36413H29.2727C29.7346 8.36413 30.1091 7.98968 30.1091 7.52777C30.1091 7.06586 29.7346 6.69141 29.2727 6.69141Z" fill="#B7C1DA"/>
<path d="M31.9909 10.0371H21.5364C21.1899 10.0371 20.9091 10.3179 20.9091 10.6644C20.9091 11.0108 21.1899 11.2917 21.5364 11.2917H31.9909C32.3373 11.2917 32.6182 11.0108 32.6182 10.6644C32.6182 10.3179 32.3373 10.0371 31.9909 10.0371Z" fill="#B7C1DA"/>
<path d="M26.3455 12.9629H21.7455C21.2835 12.9629 20.9091 13.3373 20.9091 13.7993C20.9091 14.2612 21.2835 14.6356 21.7455 14.6356H26.3455C26.8074 14.6356 27.1818 14.2612 27.1818 13.7993C27.1818 13.3373 26.8074 12.9629 26.3455 12.9629Z" fill="#B7C1DA"/>
<path d="M28.4364 16.3086H21.7455C21.2835 16.3086 20.9091 16.683 20.9091 17.145C20.9091 17.6069 21.2835 17.9813 21.7455 17.9813H28.4364C28.8983 17.9813 29.2727 17.6069 29.2727 17.145C29.2727 16.683 28.8983 16.3086 28.4364 16.3086Z" fill="#B7C1DA"/>
</g>
<defs>
<clipPath id="clip0_289_0">
<rect width="40.9818" height="23" fill="white"/>
</clipPath>
</defs>
</svg>
