<svg width="20" height="20" viewBox="0 0 20 20" fill="none" xmlns="http://www.w3.org/2000/svg">
<path d="M10 12.5C11.3807 12.5 12.5 11.3807 12.5 10C12.5 8.61929 11.3807 7.5 10 7.5C8.61929 7.5 7.5 8.61929 7.5 10C7.5 11.3807 8.61929 12.5 10 12.5Z" stroke="#556FB5" stroke-linecap="round" stroke-linejoin="round"/>
<path d="M16.1668 12.5C16.0559 12.7514 16.0228 13.0302 16.0718 13.3005C16.1208 13.5709 16.2497 13.8203 16.4418 14.0167L16.4918 14.0667C16.6468 14.2215 16.7697 14.4053 16.8536 14.6076C16.9375 14.81 16.9806 15.0268 16.9806 15.2459C16.9806 15.4649 16.9375 15.6818 16.8536 15.8841C16.7697 16.0864 16.6468 16.2703 16.4918 16.425C16.337 16.58 16.1532 16.7029 15.9509 16.7868C15.7486 16.8707 15.5317 16.9139 15.3127 16.9139C15.0936 16.9139 14.8768 16.8707 14.6744 16.7868C14.4721 16.7029 14.2883 16.58 14.1335 16.425L14.0835 16.375C13.8871 16.1829 13.6376 16.0541 13.3673 16.005C13.097 15.956 12.8182 15.9891 12.5668 16.1C12.3204 16.2057 12.1101 16.3811 11.9621 16.6047C11.814 16.8282 11.7346 17.0902 11.7335 17.3584V17.5C11.7335 17.9421 11.5579 18.366 11.2453 18.6786C10.9328 18.9911 10.5089 19.1667 10.0668 19.1667C9.6248 19.1667 9.20088 18.9911 8.88832 18.6786C8.57576 18.366 8.40016 17.9421 8.40016 17.5V17.425C8.39371 17.1492 8.30443 16.8817 8.14392 16.6573C7.98341 16.4329 7.75911 16.2619 7.50016 16.1667C7.24882 16.0558 6.97 16.0227 6.69967 16.0717C6.42934 16.1207 6.17989 16.2496 5.9835 16.4417L5.9335 16.4917C5.77871 16.6467 5.59489 16.7696 5.39256 16.8535C5.19023 16.9373 4.97335 16.9805 4.75433 16.9805C4.5353 16.9805 4.31843 16.9373 4.1161 16.8535C3.91377 16.7696 3.72995 16.6467 3.57516 16.4917C3.4202 16.3369 3.29727 16.1531 3.2134 15.9508C3.12952 15.7484 3.08635 15.5316 3.08635 15.3125C3.08635 15.0935 3.12952 14.8766 3.2134 14.6743C3.29727 14.472 3.4202 14.2882 3.57516 14.1334L3.62516 14.0834C3.81728 13.887 3.94615 13.6375 3.99517 13.3672C4.04418 13.0969 4.01109 12.8181 3.90016 12.5667C3.79453 12.3202 3.61913 12.11 3.39555 11.962C3.17198 11.8139 2.90998 11.7344 2.64183 11.7334H2.50016C2.05814 11.7334 1.63421 11.5578 1.32165 11.2452C1.00909 10.9327 0.833496 10.5087 0.833496 10.0667C0.833496 9.62468 1.00909 9.20076 1.32165 8.8882C1.63421 8.57564 2.05814 8.40004 2.50016 8.40004H2.57516C2.85099 8.39359 3.1185 8.30431 3.34291 8.1438C3.56732 7.98329 3.73826 7.75899 3.8335 7.50004C3.94443 7.24869 3.97752 6.96988 3.9285 6.69955C3.87948 6.42922 3.75061 6.17977 3.5585 5.98337L3.5085 5.93337C3.35354 5.77859 3.2306 5.59477 3.14673 5.39244C3.06286 5.19011 3.01968 4.97323 3.01968 4.75421C3.01968 4.53518 3.06286 4.3183 3.14673 4.11597C3.2306 3.91364 3.35354 3.72983 3.5085 3.57504C3.66328 3.42008 3.8471 3.29715 4.04943 3.21327C4.25176 3.1294 4.46864 3.08623 4.68766 3.08623C4.90669 3.08623 5.12357 3.1294 5.3259 3.21327C5.52823 3.29715 5.71204 3.42008 5.86683 3.57504L5.91683 3.62504C6.11323 3.81715 6.36268 3.94603 6.633 3.99504C6.90333 4.04406 7.18215 4.01097 7.4335 3.90004H7.50016C7.74664 3.7944 7.95684 3.619 8.10491 3.39543C8.25297 3.17185 8.33243 2.90986 8.3335 2.64171V2.50004C8.3335 2.05801 8.50909 1.63409 8.82165 1.32153C9.13421 1.00897 9.55813 0.833374 10.0002 0.833374C10.4422 0.833374 10.8661 1.00897 11.1787 1.32153C11.4912 1.63409 11.6668 2.05801 11.6668 2.50004V2.57504C11.6679 2.8432 11.7474 3.10519 11.8954 3.32876C12.0435 3.55234 12.2537 3.72774 12.5002 3.83337C12.7515 3.9443 13.0303 3.97739 13.3007 3.92838C13.571 3.87936 13.8204 3.75049 14.0168 3.55837L14.0668 3.50837C14.2216 3.35341 14.4054 3.23048 14.6078 3.14661C14.8101 3.06273 15.027 3.01956 15.246 3.01956C15.465 3.01956 15.6819 3.06273 15.8842 3.14661C16.0866 3.23048 16.2704 3.35341 16.4252 3.50837C16.5801 3.66316 16.7031 3.84698 16.7869 4.04931C16.8708 4.25164 16.914 4.46852 16.914 4.68754C16.914 4.90657 16.8708 5.12344 16.7869 5.32577C16.7031 5.5281 16.5801 5.71192 16.4252 5.86671L16.3752 5.91671C16.183 6.11311 16.0542 6.36255 16.0052 6.63288C15.9561 6.90321 15.9892 7.18203 16.1002 7.43337V7.50004C16.2058 7.74652 16.3812 7.95672 16.6048 8.10478C16.8283 8.25285 17.0903 8.3323 17.3585 8.33337H17.5002C17.9422 8.33337 18.3661 8.50897 18.6787 8.82153C18.9912 9.13409 19.1668 9.55801 19.1668 10C19.1668 10.4421 18.9912 10.866 18.6787 11.1786C18.3661 11.4911 17.9422 11.6667 17.5002 11.6667H17.4252C17.157 11.6678 16.895 11.7472 16.6714 11.8953C16.4479 12.0434 16.2725 12.2536 16.1668 12.5V12.5Z" stroke="#556FB5" stroke-linecap="round" stroke-linejoin="round"/>
</svg>
