<svg width="19" height="18" viewBox="0 0 19 18" fill="none" xmlns="http://www.w3.org/2000/svg">
<path d="M8.64895 0.927052C8.9483 0.00574088 10.2517 0.00573969 10.5511 0.92705L12.0248 5.46262C12.1586 5.87464 12.5426 6.1536 12.9758 6.1536H17.7448C18.7135 6.1536 19.1163 7.39322 18.3326 7.96262L14.4744 10.7658C14.1239 11.0204 13.9772 11.4718 14.1111 11.8838L15.5848 16.4193C15.8842 17.3407 14.8297 18.1068 14.046 17.5374L10.1878 14.7342C9.8373 14.4796 9.36271 14.4796 9.01222 14.7343L5.15404 17.5374C4.37032 18.1068 3.31584 17.3407 3.61519 16.4193L5.08889 11.8838C5.22276 11.4718 5.0761 11.0204 4.72562 10.7658L0.867435 7.96262C0.0837209 7.39322 0.486496 6.1536 1.45522 6.1536H6.2242C6.65742 6.1536 7.04138 5.87464 7.17525 5.46262L8.64895 0.927052Z" fill="#24E09B"/>
</svg>
