<svg width="19" height="18" viewBox="0 0 19 18" fill="none" xmlns="http://www.w3.org/2000/svg">
<path d="M8.24894 0.927052C8.54829 0.00574088 9.8517 0.00573969 10.1511 0.92705L11.6247 5.46262C11.7586 5.87464 12.1426 6.1536 12.5758 6.1536H17.3448C18.3135 6.1536 18.7163 7.39322 17.9326 7.96262L14.0744 10.7658C13.7239 11.0204 13.5772 11.4718 13.7111 11.8838L15.1848 16.4193C15.4842 17.3407 14.4297 18.1068 13.646 17.5374L9.78778 14.7342C9.43729 14.4796 8.9627 14.4796 8.61221 14.7343L4.75403 17.5374C3.97031 18.1068 2.91583 17.3407 3.21518 16.4193L4.68888 11.8838C4.82275 11.4718 4.6761 11.0204 4.32561 10.7658L0.467426 7.96262C-0.316288 7.39322 0.0864866 6.1536 1.05521 6.1536H5.82419C6.25741 6.1536 6.64137 5.87464 6.77524 5.46262L8.24894 0.927052Z" fill="#B7C1DA"/>
</svg>
