<svg width="19" height="18" viewBox="0 0 19 18" fill="none" xmlns="http://www.w3.org/2000/svg">
<g clip-path="url(#clip0_61_3)">
<path d="M9.19565 0.690984C9.495 -0.230327 10.7984 -0.230328 11.0978 0.690982L12.5715 5.22655C12.7053 5.63857 13.0893 5.91753 13.5225 5.91753H18.2915C19.2602 5.91753 19.663 7.15715 18.8793 7.72655L15.0211 10.5297C14.6706 10.7843 14.5239 11.2357 14.6578 11.6477L16.1315 16.1832C16.4309 17.1046 15.3764 17.8707 14.5927 17.3013L10.7345 14.4981C10.384 14.2435 9.90941 14.2435 9.55892 14.4982L5.70074 17.3013C4.91702 17.8707 3.86254 17.1046 4.16189 16.1832L5.63559 11.6477C5.76946 11.2357 5.6228 10.7843 5.27232 10.5297L1.41413 7.72655C0.630418 7.15715 1.03319 5.91753 2.00192 5.91753H6.7709C7.20412 5.91753 7.58808 5.63857 7.72195 5.22655L9.19565 0.690984Z" fill="url(#paint0_linear_61_3)"/>
<path d="M9.19565 0.690984C9.495 -0.230327 10.7984 -0.230328 11.0978 0.690982L12.5714 5.22655C12.7053 5.63857 13.0893 5.91753 13.5225 5.91753H18.2915C19.2602 5.91753 19.663 7.15715 18.8793 7.72655L15.0211 10.5297C14.6706 10.7843 14.5239 11.2357 14.6578 11.6477L16.1315 16.1832C16.4309 17.1046 15.3764 17.8707 14.5927 17.3013L10.7345 14.4981C10.384 14.2435 9.90941 14.2435 9.55892 14.4982L5.70074 17.3013C4.91702 17.8707 3.86254 17.1046 4.16189 16.1832L5.63559 11.6477C5.76946 11.2357 5.62281 10.7843 5.27232 10.5297L1.41413 7.72655C0.630418 7.15715 1.03319 5.91753 2.00192 5.91753H6.7709C7.20412 5.91753 7.58808 5.63857 7.72195 5.22655L9.19565 0.690984Z" fill="url(#paint1_linear_61_3)"/>
</g>
<defs>
<linearGradient id="paint0_linear_61_3" x1="0.546631" y1="8.76392" x2="19.5466" y2="8.76392" gradientUnits="userSpaceOnUse">
<stop offset="0.5" stop-color="#24E09B"/>
<stop offset="0.5001" stop-color="#24E09B" stop-opacity="0"/>
</linearGradient>
<linearGradient id="paint1_linear_61_3" x1="0.946777" y1="8.76392" x2="18.9468" y2="8.76392" gradientUnits="userSpaceOnUse">
<stop offset="0.447917" stop-color="#B7C1DA" stop-opacity="0"/>
<stop offset="0.494692" stop-color="#B7C1DA" stop-opacity="0"/>
<stop offset="0.494792" stop-color="#B7C1DA"/>
</linearGradient>
<clipPath id="clip0_61_3">
<rect width="19" height="18" fill="white"/>
</clipPath>
</defs>
</svg>
