<svg width="51" height="51" viewBox="0 0 51 51" fill="none" xmlns="http://www.w3.org/2000/svg">
<path d="M7.96875 31.8749C8.84691 31.8749 9.5625 32.5889 9.5625 33.4687C9.5625 34.35 10.2765 35.0624 11.1562 35.0624H17.5312C18.411 35.0624 19.125 34.35 19.125 33.4687C19.125 32.5873 18.411 31.8749 17.5312 31.8749H12.4775C11.9962 30.517 10.9188 29.4413 9.5625 28.9599V22.0399C10.9188 21.5586 11.9962 20.4828 12.4775 19.1249H17.5312C18.411 19.1249 19.125 18.4125 19.125 17.5312C19.125 16.6498 18.411 15.9374 17.5312 15.9374H11.1562C10.2765 15.9374 9.5625 16.6498 9.5625 17.5312C9.5625 18.4109 8.84691 19.1249 7.96875 19.1249C7.089 19.1249 6.375 19.8373 6.375 20.7187V30.2812C6.375 31.1625 7.089 31.8749 7.96875 31.8749ZM38.5225 31.8749H33.4688C32.589 31.8749 31.875 32.5873 31.875 33.4687C31.875 34.35 32.589 35.0624 33.4688 35.0624H39.8438C40.7235 35.0624 41.4375 34.35 41.4375 33.4687C41.4375 32.5889 42.1531 31.8749 43.0312 31.8749C43.911 31.8749 44.625 31.1625 44.625 30.2812V20.7187C44.625 19.8373 43.911 19.1249 43.0312 19.1249C42.1531 19.1249 41.4375 18.4109 41.4375 17.5312C41.4375 16.6498 40.7235 15.9374 39.8438 15.9374H33.4688C32.589 15.9374 31.875 16.6498 31.875 17.5312C31.875 18.4125 32.589 19.1249 33.4688 19.1249H38.5225C39.0038 20.4828 40.0812 21.5586 41.4375 22.0399V28.9599C40.0812 29.4413 39.0038 30.517 38.5225 31.8749ZM25.5 30.2812C24.6218 30.2812 23.9062 29.5672 23.9062 28.6874C23.9062 27.8061 23.1922 27.0937 22.3125 27.0937C21.4327 27.0937 20.7188 27.8061 20.7188 28.6874C20.7188 30.7625 22.0543 32.514 23.9062 33.1738V33.4687C23.9062 34.35 24.6203 35.0624 25.5 35.0624C26.3797 35.0624 27.0938 34.35 27.0938 33.4687V33.1738C28.9457 32.514 30.2812 30.7609 30.2812 28.6874C30.2812 26.8195 28.9457 24.9676 27.1766 24.3795L24.8322 23.597C24.3732 23.444 23.9062 22.7969 23.9062 22.3124C23.9062 21.4327 24.6218 20.7187 25.5 20.7187C26.3782 20.7187 27.0938 21.4327 27.0938 22.3124C27.0938 23.1938 27.8078 23.9062 28.6875 23.9062C29.5672 23.9062 30.2812 23.1938 30.2812 22.3124C30.2812 20.2373 28.9457 18.4858 27.0938 17.826V17.5312C27.0938 16.6498 26.3797 15.9374 25.5 15.9374C24.6203 15.9374 23.9062 16.6498 23.9062 17.5312V17.826C22.0543 18.4858 20.7188 20.2389 20.7188 22.3124C20.7188 24.1803 22.0543 26.0322 23.8234 26.6203L26.1678 27.4028C26.6268 27.5558 27.0938 28.2029 27.0938 28.6874C27.0938 29.5672 26.3782 30.2812 25.5 30.2812ZM15.9375 9.56241H35.0625C35.7064 9.56241 36.2881 9.17513 36.5351 8.57907C36.7822 7.983 36.6451 7.29769 36.1893 6.84188L31.408 2.06063C30.7849 1.43747 29.7776 1.43747 29.1545 2.06063C28.5313 2.68379 28.5313 3.69104 29.1545 4.31419L31.2152 6.37491H15.9375C15.0577 6.37491 14.3438 7.08732 14.3438 7.96866C14.3438 8.85 15.0577 9.56241 15.9375 9.56241ZM35.0625 41.4374H15.9375C15.2936 41.4374 14.7119 41.8247 14.4649 42.4207C14.2178 43.0168 14.3549 43.7021 14.8107 44.1579L19.592 48.9392C19.9028 49.25 20.3108 49.4062 20.7188 49.4062C21.1267 49.4062 21.5347 49.25 21.8455 48.9392C22.4687 48.316 22.4687 47.3088 21.8455 46.6856L19.7848 44.6249H35.0625C35.9422 44.6249 36.6562 43.9125 36.6562 43.0312C36.6562 42.1498 35.9422 41.4374 35.0625 41.4374Z" fill="#B7C1DA" stroke="#B7C1DA" stroke-width="0.5"/>
<path d="M47.8125 11.1562H3.1875C2.30775 11.1562 1.59375 11.8687 1.59375 12.75V38.25C1.59375 39.1313 2.30775 39.8438 3.1875 39.8438H47.8125C48.6922 39.8438 49.4062 39.1313 49.4062 38.25V12.75C49.4062 11.8687 48.6922 11.1562 47.8125 11.1562ZM46.2188 36.6562H4.78125V14.3438H46.2188V36.6562Z" fill="#B7C1DA" stroke="#B7C1DA" stroke-width="0.5"/>
</svg>
