<svg width="17" height="17" viewBox="0 0 17 17" fill="none" xmlns="http://www.w3.org/2000/svg">
<path d="M2.125 4.25H3.54167H14.875" stroke="#3630C9" stroke-width="1.5" stroke-linecap="round" stroke-linejoin="round"/>
<path d="M5.66666 4.25033V2.83366C5.66666 2.45794 5.81591 2.0976 6.08159 1.83192C6.34727 1.56625 6.7076 1.41699 7.08332 1.41699H9.91666C10.2924 1.41699 10.6527 1.56625 10.9184 1.83192C11.1841 2.0976 11.3333 2.45794 11.3333 2.83366V4.25033M13.4583 4.25033V14.167C13.4583 14.5427 13.3091 14.9031 13.0434 15.1687C12.7777 15.4344 12.4174 15.5837 12.0417 15.5837H4.95832C4.5826 15.5837 4.22227 15.4344 3.95659 15.1687C3.69091 14.9031 3.54166 14.5427 3.54166 14.167V4.25033H13.4583Z" stroke="#3630C9" stroke-width="1.5" stroke-linecap="round" stroke-linejoin="round"/>
</svg>
