<svg width="20" height="20" viewBox="0 0 20 20" fill="none" xmlns="http://www.w3.org/2000/svg">
<path d="M13.3335 2.5H0.833496V13.3333H13.3335V2.5Z" stroke="#556FB5" stroke-linecap="round" stroke-linejoin="round"/>
<path d="M13.3335 6.66663H16.6668L19.1668 9.16663V13.3333H13.3335V6.66663Z" stroke="#556FB5" stroke-linecap="round" stroke-linejoin="round"/>
<path d="M4.58333 17.5C5.73393 17.5 6.66667 16.5673 6.66667 15.4167C6.66667 14.2661 5.73393 13.3334 4.58333 13.3334C3.43274 13.3334 2.5 14.2661 2.5 15.4167C2.5 16.5673 3.43274 17.5 4.58333 17.5Z" stroke="#556FB5" stroke-linecap="round" stroke-linejoin="round"/>
<path d="M15.4168 17.5C16.5674 17.5 17.5002 16.5673 17.5002 15.4167C17.5002 14.2661 16.5674 13.3334 15.4168 13.3334C14.2662 13.3334 13.3335 14.2661 13.3335 15.4167C13.3335 16.5673 14.2662 17.5 15.4168 17.5Z" stroke="#556FB5" stroke-linecap="round" stroke-linejoin="round"/>
</svg>
